<?xml version="1.0" encoding="UTF-8"?>
<svg id="Calque_1" data-name="Calque 1" xmlns="http://www.w3.org/2000/svg" viewBox="0 0 579.59 116.62">
  <defs>
    <style>
      .cls-1 {
        fill: #65c8d0;
        stroke: #0071bc;
        stroke-miterlimit: 10;
      }
    </style>
  </defs>
  <path class="cls-1" d="M.5,2.83h29.6c9.35,0,16.43.71,21.25,2.12,4.82,1.42,8.7,4.28,11.66,8.59,2.96,4.32,4.44,11.27,4.44,20.85,0,6.48-1.05,11-3.14,13.56-2.09,2.56-6.21,4.52-12.37,5.89,6.86,1.51,11.51,4.01,13.96,7.51,2.44,3.5,3.67,8.86,3.67,16.08v10.29c0,7.5-.88,13.05-2.64,16.66-1.76,3.61-4.57,6.08-8.42,7.41-3.85,1.33-11.75,1.99-23.68,1.99H.5V2.83ZM30.17,21.81v24.67c1.27-.04,2.26-.07,2.96-.07,2.91,0,4.77-.7,5.57-2.09.8-1.39,1.2-5.38,1.2-11.96,0-3.47-.33-5.9-.99-7.3-.66-1.39-1.52-2.27-2.57-2.64-1.06-.37-3.11-.57-6.17-.62ZM30.17,63.76v31.05c4.18-.14,6.85-.78,8-1.92,1.15-1.14,1.73-3.95,1.73-8.43v-10.35c0-4.75-.52-7.63-1.55-8.64-1.03-1-3.76-1.58-8.18-1.71Z"/>
  <path class="cls-1" d="M109.89,2.83v110.96h-29.67V2.83h29.67Z"/>
  <path class="cls-1" d="M181.57,2.83v22.21h-17.62v88.75h-29.67V25.04h-17.55V2.83h64.84Z"/>
  <path class="cls-1" d="M213.78,2.83h29.6c9.35,0,16.43.71,21.25,2.12,4.82,1.42,8.7,4.28,11.66,8.59,2.96,4.32,4.44,11.27,4.44,20.85,0,6.48-1.05,11-3.14,13.56-2.09,2.56-6.21,4.52-12.37,5.89,6.86,1.51,11.51,4.01,13.96,7.51,2.44,3.5,3.67,8.86,3.67,16.08v10.29c0,7.5-.88,13.05-2.64,16.66-1.76,3.61-4.57,6.08-8.42,7.41-3.85,1.33-11.75,1.99-23.68,1.99h-34.32V2.83ZM243.45,21.81v24.67c1.27-.04,2.26-.07,2.96-.07,2.91,0,4.77-.7,5.57-2.09.8-1.39,1.2-5.38,1.2-11.96,0-3.47-.33-5.9-.99-7.3-.66-1.39-1.52-2.27-2.57-2.64-1.06-.37-3.11-.57-6.17-.62ZM243.45,63.76v31.05c4.18-.14,6.85-.78,8-1.92,1.15-1.14,1.73-3.95,1.73-8.43v-10.35c0-4.75-.52-7.63-1.55-8.64-1.03-1-3.76-1.58-8.18-1.71Z"/>
  <path class="cls-1" d="M323.17,2.83v110.96h-29.67V2.83h29.67Z"/>
  <path class="cls-1" d="M335.08,2.83h29.6c9.35,0,16.43.71,21.25,2.12,4.82,1.42,8.7,4.28,11.67,8.59,2.96,4.32,4.44,11.27,4.44,20.85,0,6.48-1.05,11-3.14,13.56-2.09,2.56-6.21,4.52-12.37,5.89,6.86,1.51,11.51,4.01,13.96,7.51,2.44,3.5,3.67,8.86,3.67,16.08v10.29c0,7.5-.88,13.05-2.64,16.66-1.76,3.61-4.57,6.08-8.42,7.41-3.85,1.33-11.75,1.99-23.68,1.99h-34.32V2.83ZM364.75,21.81v24.67c1.27-.04,2.26-.07,2.96-.07,2.91,0,4.77-.7,5.57-2.09.8-1.39,1.2-5.38,1.2-11.96,0-3.47-.33-5.9-.99-7.3-.66-1.39-1.51-2.27-2.57-2.64-1.06-.37-3.11-.57-6.17-.62ZM364.75,63.76v31.05c4.18-.14,6.85-.78,8-1.92,1.15-1.14,1.73-3.95,1.73-8.43v-10.35c0-4.75-.52-7.63-1.55-8.64-1.03-1-3.76-1.58-8.18-1.71Z"/>
  <path class="cls-1" d="M444.47,2.83v88.75h18.04v22.21h-47.72V2.83h29.67Z"/>
  <path class="cls-1" d="M499.37,2.83v110.96h-29.67V2.83h29.67Z"/>
  <path class="cls-1" d="M579.09,67.8c0,11.15-.27,19.04-.81,23.68-.54,4.64-2.23,8.88-5.08,12.71-2.84,3.84-6.68,6.79-11.52,8.84-4.84,2.06-10.48,3.08-16.92,3.08s-11.59-.97-16.46-2.91c-4.86-1.94-8.78-4.85-11.74-8.74-2.96-3.88-4.72-8.11-5.29-12.68-.56-4.57-.85-12.56-.85-23.99v-18.98c0-11.15.27-19.04.81-23.68.54-4.64,2.23-8.88,5.07-12.71,2.84-3.84,6.68-6.78,11.52-8.84,4.84-2.06,10.48-3.08,16.92-3.08s11.59.97,16.46,2.91c4.86,1.94,8.77,4.86,11.74,8.74,2.96,3.88,4.72,8.11,5.29,12.68.56,4.57.85,12.56.85,23.99v18.98ZM549.42,31.34c0-5.16-.29-8.46-.88-9.9-.59-1.44-1.8-2.16-3.63-2.16-1.55,0-2.74.58-3.56,1.75-.82,1.17-1.23,4.6-1.23,10.31v51.81c0,6.44.27,10.42.81,11.92.54,1.51,1.8,2.26,3.77,2.26s3.31-.87,3.88-2.6c.56-1.74.85-5.87.85-12.4V31.34Z"/>
</svg>